<svg viewBox="0 0 34 19" xmlns="http://www.w3.org/2000/svg" class="soc__icon"><path d="M31.6 1.3c.2-.8 0-1.3-1.1-1.3H27c-.9 0-1.3.5-1.5 1 0 0-1.8 4.3-4.3 7.1-.8.9-1.2 1.1-1.7 1.1-.2 0-.5-.2-.5-1v-7c0-.8-.3-1.2-1-1.2h-5.5c-.6 0-.9.4-.9.8 0 .8 1.3 1 1.4 3.4v5.2c0 1.1-.2 1.3-.6 1.3-1.2 0-4.1-4.4-5.8-9.3C6.2.4 5.9 0 5 0H1.5C.5 0 .3.5.3 1c0 1 1.2 5.5 5.5 11.6 3 4.1 7 6.4 10.7 6.4 2.2 0 2.5-.5 2.5-1.4v-3.1c0-1 .2-1.2 1-1.2.4 0 1.3.3 3.4 2.3 2.4 2.3 2.8 3.4 4.1 3.4H31c1 0 1.5-.5 1.2-1.5a15 15 0 0 0-3-4c-.8-1-2-2-2.4-2.6-.5-.7-.3-1 0-1.6 0 0 4.3-6 4.8-8z"></path></svg>